<?xml version="1.0" encoding="iso-8859-1"?>
<!-- Uploaded to: SVG Repo, www.svgrepo.com, Generator: SVG Repo Mixer Tools -->
<!DOCTYPE svg PUBLIC "-//W3C//DTD SVG 1.1//EN" "http://www.w3.org/Graphics/SVG/1.1/DTD/svg11.dtd">
<svg fill="#000000" version="1.1" id="Capa_1" xmlns="http://www.w3.org/2000/svg" xmlns:xlink="http://www.w3.org/1999/xlink" 
	 width="800px" height="800px" viewBox="0 0 41.266 41.266"
	 xml:space="preserve">
<g>
	<g>
		<g>
			<polygon points="29.654,9.404 29.691,9.692 29.26,9.781 29.202,10.393 29.719,10.393 30.406,10.328 30.76,9.906 30.383,9.758 
				30.178,9.522 29.867,9.02 29.719,8.311 29.135,8.428 28.973,8.678 28.973,8.961 29.252,9.153 			"/>
			<polygon points="29.157,9.639 29.188,9.256 28.846,9.108 28.368,9.219 28.014,9.787 28.014,10.156 28.426,10.156 			"/>
			<path d="M19.317,11.27l-0.105,0.271h-0.51v0.264h0.121c0,0,0.008,0.055,0.018,0.129l0.313-0.025l0.195-0.121l0.051-0.246
				l0.253-0.021l0.099-0.205l-0.231-0.049L19.317,11.27z"/>
			<polygon points="18.003,11.748 17.983,12.006 18.354,11.975 18.391,11.717 18.169,11.541 			"/>
			<path d="M40.162,19.959c-0.006-0.566-0.034-1.129-0.089-1.684c-0.179-1.846-0.621-3.615-1.281-5.273
				c-0.051-0.125-0.097-0.25-0.146-0.371c-0.883-2.082-2.12-3.979-3.635-5.615c-0.1-0.105-0.199-0.211-0.301-0.314
				c-0.287-0.297-0.58-0.588-0.886-0.865C30.381,2.7,25.805,0.786,20.793,0.786c-5.057,0-9.664,1.949-13.117,5.131
				C6.871,6.659,6.131,7.47,5.461,8.337C2.93,11.61,1.419,15.712,1.419,20.158c0,10.685,8.691,19.375,19.374,19.375
				c7.514,0,14.038-4.303,17.25-10.571c0.688-1.34,1.221-2.771,1.582-4.267c0.092-0.379,0.17-0.762,0.239-1.149
				c0.194-1.101,0.302-2.229,0.302-3.388C40.167,20.092,40.162,20.025,40.162,19.959z M36.516,12.215l0.111-0.125
				c0.147,0.285,0.286,0.576,0.418,0.871l-0.185-0.008l-0.345,0.049V12.215L36.516,12.215z M33.715,8.836l0.004-0.867
				c0.305,0.324,0.599,0.656,0.877,1l-0.348,0.52l-1.221-0.012l-0.076-0.254L33.715,8.836z M10.345,6.686V6.653h0.389l0.033-0.133
				h0.636v0.275L11.22,7.039h-0.875V6.686z M10.966,7.549c0,0,0.388-0.066,0.422-0.066c0.033,0,0,0.389,0,0.389l-0.876,0.055
				l-0.167-0.199L10.966,7.549z M37.75,15.24h-1.42l-0.863-0.645l-0.908,0.09v0.555H34.27l-0.311-0.223l-1.574-0.398v-1.02
				l-1.994,0.154l-0.619,0.334H28.98l-0.39-0.039l-0.961,0.533v1.006l-1.967,1.418l0.163,0.605h0.399l-0.104,0.576l-0.28,0.104
				l-0.015,1.508l1.698,1.935h0.74l0.043-0.117h1.33l0.384-0.355h0.755l0.413,0.414l1.123,0.117l-0.147,1.492l1.247,2.203
				l-0.657,1.256l0.045,0.592l0.519,0.516v1.422l0.679,0.914v1.182h0.588c-3.265,4.007-8.232,6.572-13.791,6.572
				c-9.805,0-17.78-7.977-17.78-17.781c0-2.466,0.507-4.819,1.419-6.957v-0.555l0.636-0.771c0.221-0.418,0.458-0.824,0.71-1.221
				l0.028,0.322l-0.738,0.898c-0.229,0.432-0.442,0.873-0.636,1.326v1.012l0.739,0.355v1.406l0.708,1.209l0.577,0.088l0.073-0.414
				l-0.679-1.049l-0.133-1.02h0.398l0.169,1.049l0.982,1.434l-0.254,0.463l0.624,0.955l1.552,0.385v-0.252l0.62,0.088L9.75,19.353
				l0.487,0.09l0.754,0.207l1.063,1.211l1.359,0.104l0.132,1.107l-0.93,0.649l-0.044,0.99l-0.133,0.604l1.345,1.687l0.103,0.575
				c0,0,0.488,0.132,0.547,0.132c0.059,0,1.094,0.784,1.094,0.784v3.044l0.369,0.104l-0.252,1.404l0.621,0.826l-0.114,1.393
				l0.82,1.441l1.052,0.92l1.059,0.021l0.104-0.341l-0.777-0.655l0.045-0.324l0.14-0.398l0.029-0.406l-0.525-0.016l-0.266-0.332
				l0.438-0.422l0.059-0.316l-0.488-0.141L17.87,33l0.695-0.105l1.057-0.508l0.354-0.65l1.108-1.418l-0.252-1.108l0.34-0.593
				l1.02,0.031l0.688-0.543l0.223-2.139l0.761-0.969l0.133-0.619l-0.694-0.223l-0.457-0.754l-1.566-0.015l-1.241-0.475l-0.059-0.886
				l-0.414-0.725l-1.123-0.016l-0.65-1.019l-0.576-0.281l-0.029,0.311l-1.049,0.061l-0.384-0.533l-1.094-0.223l-0.901,1.041
				l-1.418-0.24l-0.104-1.6l-1.035-0.176l0.415-0.783l-0.119-0.451l-1.36,0.908l-0.855-0.104l-0.309-0.666l0.188-0.689l0.472-0.869
				l1.086-0.551h2.098l-0.006,0.639l0.753,0.352l-0.06-1.094l0.543-0.547l1.097-0.719l0.075-0.508l1.093-1.137l1.163-0.645
				l-0.103-0.084l0.787-0.74l0.289,0.076l0.132,0.166l0.299-0.332l0.073-0.033l-0.328-0.045l-0.332-0.111v-0.32l0.177-0.145h0.388
				l0.178,0.078l0.154,0.311l0.188-0.029V10.53l0.055,0.018l0.545-0.084l0.077-0.266l0.31,0.078v0.289l-0.288,0.197h0.001
				l0.042,0.316l0.987,0.305c0,0,0.002,0.006,0.003,0.012l0.228-0.02l0.016-0.428l-0.783-0.355l-0.044-0.205l0.649-0.223
				l0.028-0.621l-0.679-0.414l-0.045-1.047l-0.931,0.457h-0.34l0.089-0.799l-1.268-0.299l-0.523,0.396v1.207l-0.942,0.299
				l-0.378,0.787l-0.409,0.066V9.188L14.89,9.065l-0.442-0.287l-0.179-0.654l1.586-0.928L16.63,6.96l0.077,0.521L17.14,7.46
				l0.033-0.264l0.452-0.064l0.008-0.09L17.439,6.96l-0.044-0.275l0.555-0.047l0.336-0.35l0.019-0.025l0.004,0.002l0.103-0.105
				l1.167-0.148l0.517,0.439l-1.354,0.721l1.723,0.406l0.223-0.576h0.754L21.708,6.5l-0.531-0.133V5.733l-1.669-0.74l-1.152,0.133
				l-0.65,0.34l0.044,0.828l-0.68-0.104L16.96,5.733l0.651-0.592l-1.183-0.059l-0.34,0.104l-0.147,0.398l0.443,0.074l-0.089,0.443
				l-0.753,0.045l-0.118,0.295L14.331,6.47c0,0-0.03-0.621-0.074-0.621s0.856-0.014,0.856-0.014l0.65-0.637L15.408,5.02
				l-0.472,0.459l-0.784-0.043l-0.473-0.652h-1.005l-1.049,0.783h0.961l0.088,0.281l-0.251,0.236l1.064,0.029l0.162,0.385
				l-1.197-0.045l-0.059-0.295L11.64,5.996l-0.399-0.223l-0.896,0.008c2.936-2.139,6.545-3.404,10.446-3.404
				c4.495,0,8.604,1.68,11.738,4.441l-0.212,0.377l-0.818,0.322l-0.346,0.375l0.078,0.438l0.424,0.059l0.256,0.639l0.729-0.295
				l0.121,0.854H32.54l-0.6-0.09l-0.664,0.111l-0.643,0.91l-0.92,0.143l-0.134,0.787l0.39,0.092l-0.111,0.506l-0.914-0.184
				l-0.838,0.184l-0.178,0.467l0.146,0.979l0.492,0.229l0.823-0.004l0.557-0.051l0.171-0.443l0.87-1.131l0.572,0.117l0.564-0.51
				l0.104,0.398l1.388,0.938l-0.169,0.227l-0.626-0.033l0.24,0.342l0.386,0.084l0.451-0.188l-0.009-0.543l0.201-0.102l-0.158-0.169
				l-0.926-0.518l-0.244-0.686h0.771l0.245,0.244l0.664,0.57l0.027,0.691l0.688,0.732l0.256-1.002l0.477-0.26l0.09,0.818l0.465,0.51
				l0.927-0.016c0.179,0.463,0.341,0.932,0.479,1.41L37.75,15.24z M11.987,9.588l0.465-0.223l0.421,0.102l-0.145,0.564l-0.454,0.145
				L11.987,9.588z M14.456,10.918v0.365h-1.063l-0.398-0.111l0.099-0.254l0.511-0.211h0.698v0.211H14.456z M14.945,11.428v0.355
				l-0.267,0.17l-0.331,0.063c0,0,0-0.533,0-0.588H14.945z M14.645,11.283v-0.422l0.366,0.334L14.645,11.283z M14.812,12.135v0.346
				l-0.255,0.254h-0.565l0.089-0.387l0.267-0.023l0.055-0.133L14.812,12.135z M13.404,11.428h0.587l-0.753,1.053l-0.312-0.166
				l0.067-0.443L13.404,11.428z M15.809,12.016v0.344h-0.566l-0.154-0.225v-0.318h0.044L15.809,12.016z M15.288,11.541l0.16-0.168
				l0.272,0.168l-0.218,0.18L15.288,11.541z M38.038,16.137l0.057-0.064c0.022,0.1,0.047,0.201,0.069,0.303L38.038,16.137z"/>
			<path d="M4.432,12.647v0.555c0.193-0.453,0.407-0.895,0.636-1.326L4.432,12.647z"/>
		</g>
		<polygon points="41.115,7.555 39.115,7.555 39.115,2 32.917,2 32.917,0 41.115,0 		"/>
		<polygon points="2.154,8.197 0.154,8.197 0.154,0 7.71,0 7.71,2 2.154,2 		"/>
		<polygon points="8.349,41.266 0.151,41.266 0.151,33.711 2.151,33.711 2.151,39.266 8.349,39.266 		"/>
		<polygon points="41.059,40.533 33.502,40.533 33.502,38.533 39.059,38.533 39.059,32.336 41.059,32.336 		"/>
	</g>
</g>
</svg>